<svg xmlns="http://www.w3.org/2000/svg" viewBox="0 0 500 500"><g id="freepik--Floor--inject-5"><ellipse id="freepik--floor--inject-5" cx="249.86" cy="362.36" rx="224.23" ry="124.15" style="fill:#f5f5f5"></ellipse></g><g id="freepik--Shadows--inject-5"><path id="freepik--Shadow--inject-5" d="M451.69,343.15l-125,72.2a3.69,3.69,0,0,1-3.36,0l-180.22-104a1,1,0,0,1,0-1.94l125-72.2a3.69,3.69,0,0,1,3.36,0l180.22,104A1,1,0,0,1,451.69,343.15Z" style="fill:#e6e6e6"></path><ellipse id="freepik--shadow--inject-5" cx="161.23" cy="412.39" rx="75.08" ry="43.35" style="fill:#e6e6e6"></ellipse><ellipse id="freepik--shadow--inject-5" cx="252.65" cy="362.13" rx="59.1" ry="34.12" style="fill:#e6e6e6"></ellipse><ellipse id="freepik--shadow--inject-5" cx="384.09" cy="407.87" rx="37.1" ry="21.42" style="fill:#e6e6e6"></ellipse></g><g id="freepik--Desk--inject-5"><g id="freepik--desk--inject-5"><g id="freepik--Table--inject-5"><path d="M329.42,286.36v111a2.48,2.48,0,0,1-1.12,1.94l-2.38,1.37a2.46,2.46,0,0,1-2.24,0l-2.38-1.37a2.48,2.48,0,0,1-1.12-1.94V286.36c0-.71.5-1,1.12-.64l2.38,1.37a2.46,2.46,0,0,0,2.24,0l2.38-1.37C328.92,285.36,329.42,285.65,329.42,286.36Z" style="fill:#37474f"></path><path d="M323.68,400.62l-2.38-1.37a2.48,2.48,0,0,1-1.12-1.94V286.36c0-.71.5-1,1.12-.64l2.38,1.37A2.48,2.48,0,0,1,324.8,289V400C324.8,400.69,324.3,401,323.68,400.62Z" style="fill:#455a64"></path><path d="M430.93,227.72V338.66a2.45,2.45,0,0,1-1.12,1.94L427.43,342a2.52,2.52,0,0,1-2.24,0l-2.38-1.38a2.48,2.48,0,0,1-1.12-1.94V227.72c0-.71.51-1,1.12-.65l2.38,1.38a2.46,2.46,0,0,0,2.24,0l2.38-1.38C430.43,226.72,430.93,227,430.93,227.72Z" style="fill:#37474f"></path><path d="M425.19,342l-2.38-1.38a2.48,2.48,0,0,1-1.12-1.94V227.72c0-.71.51-1,1.12-.65l2.38,1.38a2.47,2.47,0,0,1,1.12,1.94V341.33C426.31,342,425.81,342.33,425.19,342Z" style="fill:#455a64"></path><path d="M192.71,207.47v111a2.48,2.48,0,0,1-1.12,1.94l-2.38,1.37a2.46,2.46,0,0,1-2.24,0l-2.38-1.37a2.48,2.48,0,0,1-1.12-1.94v-111c0-.71.5-1,1.12-.64L187,208.2a2.46,2.46,0,0,0,2.24,0l2.38-1.37C192.21,206.47,192.71,206.76,192.71,207.47Z" style="fill:#37474f"></path><path d="M187,321.73l-2.38-1.37a2.48,2.48,0,0,1-1.12-1.94v-111c0-.71.5-1,1.12-.64L187,208.2a2.48,2.48,0,0,1,1.12,1.94V321.08C188.09,321.8,187.59,322.09,187,321.73Z" style="fill:#455a64"></path><path d="M453,235.61v-.81a4.49,4.49,0,0,0-2-3.53L272,128a4.51,4.51,0,0,0-4.08,0l-110.12,63.6a4.49,4.49,0,0,0-2,3.53V196a4.49,4.49,0,0,0,2,3.53l179,103.26a4.58,4.58,0,0,0,4.08,0L451,239.14A4.49,4.49,0,0,0,453,235.61Z" style="fill:#BA68C8"></path><path d="M453,235.61v-.81a4.49,4.49,0,0,0-2-3.53L272,128a4.51,4.51,0,0,0-4.08,0l-110.12,63.6a4.49,4.49,0,0,0-2,3.53V196a4.49,4.49,0,0,0,2,3.53l179,103.26a4.58,4.58,0,0,0,4.08,0L451,239.14A4.49,4.49,0,0,0,453,235.61Z" style="opacity:0.6000000000000001"></path><path d="M338.82,297.72v5.52a4.24,4.24,0,0,0,2-.49L451,239.15a4.51,4.51,0,0,0,2-3.53v-.82a4.53,4.53,0,0,0-1.66-3.26c.73.63.61,1.5-.38,2.09l-110.12,63.6A4.13,4.13,0,0,1,338.82,297.72Z" style="fill:#BA68C8"></path><path d="M338.82,297.72v5.52a4.24,4.24,0,0,0,2-.49L451,239.15a4.51,4.51,0,0,0,2-3.53v-.82a4.53,4.53,0,0,0-1.66-3.26c.73.63.61,1.5-.38,2.09l-110.12,63.6A4.13,4.13,0,0,1,338.82,297.72Z" style="opacity:0.5"></path><path d="M451,233.62,340.86,297.23a4.51,4.51,0,0,1-4.08,0L157.77,194a1.24,1.24,0,0,1,0-2.35L267.89,128a4.51,4.51,0,0,1,4.08,0L451,231.27A1.24,1.24,0,0,1,451,233.62Z" style="fill:#BA68C8"></path><path d="M451,233.62,340.86,297.23a4.51,4.51,0,0,1-4.08,0L157.77,194a1.24,1.24,0,0,1,0-2.35L267.89,128a4.51,4.51,0,0,1,4.08,0L451,231.27A1.24,1.24,0,0,1,451,233.62Z" style="opacity:0.4"></path></g><g id="freepik--Keyboard--inject-5"><path id="freepik--shadow--inject-5" d="M325.29,232.24l-26.09,15.1a3.25,3.25,0,0,1-2.93,0L219.19,202.9a.89.89,0,0,1,0-1.69l26.09-15.11a3.26,3.26,0,0,1,2.92,0l77.09,44.45A.89.89,0,0,1,325.29,232.24Z" style="opacity:0.15"></path><g id="freepik--keyboard--inject-5"><path d="M220.77,198.53a1,1,0,0,1,.61-.84l24.51-14.15a3.2,3.2,0,0,1,2.92,0l74.8,43.25a1,1,0,0,1,.6.85v2.57a1,1,0,0,1-.6.84l-24.5,14.15a3.22,3.22,0,0,1-2.93,0L221.38,202a1,1,0,0,1-.61-.84Z" style="fill:#263238"></path><path d="M299.11,242.57l24.5-14.09a.89.89,0,0,0,0-1.69l-74.8-43.25a3.2,3.2,0,0,0-2.92,0l-24.51,14.15a.89.89,0,0,0,0,1.69l74.8,43.18A3.25,3.25,0,0,0,299.11,242.57Z" style="fill:#37474f"></path><path d="M297.74,242.91v2.63a2.92,2.92,0,0,0,1.37-.34l24.49-14.14a1,1,0,0,0,.61-.85v-2.58a1,1,0,0,1-.61.85l-24.49,14.09A3,3,0,0,1,297.74,242.91Z" style="fill:#263238"></path><path d="M225.31,198.72s0,0,0,0l2.42-1.4,3.29,1.9-2.44,1.45-3.29-1.9Zm3.8-2.19a0,0,0,0,1,0,0l2.43-1.4,2.59,1.49L231.69,198l-2.58-1.49Zm.8,4.85a0,0,0,0,1,0,0l2.43-1.4,2.58,1.49-2.44,1.45-2.58-1.49Zm3-7s0,0,0,0l2.43-1.4,4.17,2.42-2.44,1.44-4.17-2.41Zm.09,4.44s0,0,0,0l2.42-1.41,2.06,1.19L235.05,200,233,198.79Zm.8,4.84,0,0,2.42-1.4,2.59,1.49-2.45,1.45-2.58-1.49Zm2.56-2.9a.05.05,0,0,1,0,0l2.42-1.4,2,1.19-2.44,1.45-2-1.19Zm.34-8.58,0,0,2.43-1.4,3.29,1.9L240,194.06l-3.29-1.9Zm1,13.73s0,0,0,0l2.42-1.4,18.68,10.78-2.44,1.45-18.68-10.78Zm.7-8.37s0,0,0,0l2.42-1.4,2,1.19-2.44,1.44-2.05-1.18Zm1.33,5.16a.05.05,0,0,1,0,0l2.42-1.4,2.05,1.19-2.44,1.45-2.05-1.19ZM240.5,190s0,0,0,0l2.42-1.4,2.06,1.19-2.44,1.44L240.51,190Zm.8,4.85s0,0,0,0l2.42-1.4,2.06,1.18L243.36,196l-2.06-1.18Zm.45,4.64s0,0,0,0l2.42-1.4,2.05,1.19-2.44,1.44-2.05-1.18Zm1.33,5.16a.05.05,0,0,1,0,0l2.42-1.4,2,1.19-2.44,1.45-2-1.19Zm.78-12.71s0,0,0,0l2.42-1.4,2.06,1.19-2.44,1.44-2-1.18Zm.8,4.85s0,0,0,0l2.42-1.4,2.06,1.18-2.44,1.45-2.05-1.18Zm.45,4.64,0,0,2.42-1.4,2,1.19-2.44,1.44-2-1.18Zm0-14.09s0,0,0,0l2.42-1.4,2.59,1.49-2.45,1.45-2.58-1.49Zm1.33,19.25a.05.05,0,0,1,0,0l2.42-1.4,2.05,1.19-2.44,1.45-2.05-1.19Zm.78-12.71s0,0,0,0l2.42-1.4,2.06,1.19L249.28,195l-2.05-1.18Zm.8,4.85s0,0,0,0l2.42-1.4,2.06,1.18-2.44,1.45L248,198.7Zm.45,4.64s0,0,0,0l2.42-1.4,2.05,1.19-2.44,1.44-2.05-1.18Zm1.33,5.16a.05.05,0,0,1,0,0l2.42-1.4,2,1.19-2.44,1.45-2-1.19Zm.66-18.1s0,0,0,0l2.43-1.4,2.05,1.18-2.44,1.45-2.05-1.18Zm.12,5.39s0,0,0,0l2.42-1.4,2.06,1.19L252.63,197l-2-1.18Zm.8,4.85s0,0,0,0l2.42-1.4,2.06,1.18-2.44,1.45-2.05-1.18Zm.45,4.64s0,0,0,0l2.42-1.4,2,1.19-2.44,1.44-2-1.18Zm1.33,5.16s0,0,0,0L255.6,209l2,1.19-2.44,1.45-2.05-1.19Zm.66-18.1s0,0,0,0l2.42-1.4,2.06,1.18-2.44,1.45-2-1.18Zm.12,5.39s0,0,0,0l2.42-1.4,2.06,1.19L256,198.91l-2-1.18Zm.8,4.85s0,0,0,0l2.42-1.4,2.06,1.18-2.44,1.45-2.05-1.18Zm.45,4.64v0l2.43-1.4,2.05,1.19-2.44,1.44-2.05-1.18Zm1.33,5.16s0,0,0,0l2.42-1.41,2.05,1.19-2.44,1.45-2.05-1.19Zm.66-18.1s0,0,0,0l2.43-1.4,2.05,1.18-2.44,1.45-2.05-1.18Zm.12,5.39s0,0,0,0l2.43-1.4,2.05,1.19-2.45,1.44-2-1.18Zm.37,17.76a0,0,0,0,1,0,0l2.43-1.4,2.58,1.49-2.44,1.45-2.58-1.49Zm.43-12.91s0,0,0,0l2.42-1.4,2.06,1.18-2.44,1.45-2.05-1.18Zm.45,4.64v0l2.43-1.4L263,208.9l-2.44,1.44-2.05-1.18Zm1.33,5.16a.05.05,0,0,1,0,0l2.42-1.4,2.06,1.19-2.45,1.45-2.05-1.19Zm.66-18.1s0,0,0,0l2.43-1.4L265,196l-2.44,1.45-2.05-1.18Zm.12,5.39s0,0,0,0l2.43-1.4,2.05,1.19-2.44,1.44-2.05-1.18Zm.8,4.85s0,0,0,0l2.43-1.4,2,1.18-2.44,1.45-2-1.18Zm.1,13.21s0,0,0,0l2.43-1.4,2.58,1.49-2.44,1.45-2.58-1.49Zm.35-8.57s0,0,0,0l2.42-1.4,2,1.19L264,212.28l-2-1.18Zm1.33,5.16a.05.05,0,0,1,0,0l2.42-1.4,2.06,1.19-2.45,1.45-2.05-1.19Zm.78-12.71s0,0,0,0l2.43-1.4,2,1.19-2.44,1.44L264,203.55Zm.8,4.85s0,0,0,0l2.43-1.4,2.05,1.18-2.44,1.45-2.05-1.18Zm.45,4.64s0,0,0,0l2.42-1.4,2.05,1.19-2.44,1.44L265.27,213Zm.1-14s0,0,0,0l2.43-1.4,2.05,1.19-2.44,1.45L265.37,199Zm.08,22.91a0,0,0,0,1,0,0l2.43-1.4,2.58,1.49L268,223.41l-2.58-1.49Zm1.15-3.72s0,0,0,0l2.42-1.41,2.06,1.19-2.45,1.45-2-1.19Zm.78-12.71a0,0,0,0,1,0,0l2.42-1.4,2.06,1.19-2.44,1.44-2.05-1.18Zm.8,4.85s0,0,0,0l2.43-1.4,2.05,1.18-2.44,1.45-2.05-1.18Zm.45,4.64s0,0,0,0l2.42-1.4,2.06,1.19-2.45,1.44L268.63,215Zm.1-14s0,0,0,0l2.43-1.4,2.05,1.19-2.44,1.45-2-1.19Zm.62,23.22a0,0,0,0,1,0,0l2.43-1.41,3.29,1.9-2.44,1.45-3.29-1.9Zm.61-4s0,0,0,0l2.42-1.41,6.48,3.74-2.44,1.45L270,220.13Zm.78-12.71s0,0,0,0l2.43-1.4,2.05,1.19-2.44,1.44-2.05-1.18Zm.8,4.85s0,0,0,0l2.43-1.4L276,212l-2.44,1.45-2.05-1.18Zm.45,4.64s0,0,0,0l2.42-1.4,2.06,1.19L274,218.1,272,216.92Zm.1-14s0,0,0,0l2.43-1.4,2.05,1.19-2.44,1.45-2.05-1.19Zm2,6.48s0,0,0,0l2.43-1.4,2.05,1.19-2.44,1.44-2.05-1.18Zm.55,17.86s0,0,0,0l2.42-1.4,2.06,1.18-2.45,1.45-2-1.18Zm.25-13s0,0,0,0l2.43-1.4,2,1.18L277,215.4l-2-1.18Zm.45,4.64,0,0,2.42-1.4,1.88,1.08a1.2,1.2,0,0,0,.59.13,1.33,1.33,0,0,0,.62-.13l3.19-1.84,2.4,1.39-6.23,3.64-4.89-2.82Zm.1-14s0,0,0,0l2.43-1.4,2.05,1.19L277.5,206l-2.05-1.19Zm2,6.48s0,0,0,0l2.42-1.4,2.06,1.19-2.44,1.44-2-1.18Zm.55,17.86s0,0,0,0l2.42-1.4,2.06,1.18-2.45,1.45-2-1.18Zm.25-13s0,0,0,0l2.43-1.4,2.05,1.18-2.44,1.45-2.05-1.18Zm2-8.55s0,0,0,0l2.42-1.4,2.06,1.18-2.45,1.45-2.05-1.18Zm.55,5.64s0,0,0,0l2.42-1.4,2.06,1.19-2.44,1.44-2.05-1.18Zm.55,17.86s0,0,0,0l2.43-1.4,2.05,1.18-2.45,1.45-2-1.18Zm.44-4.13a.05.05,0,0,1,0,0l2.42-1.4,2.06,1.19-2.45,1.45L281.81,227Zm1.82-17.43s0,0,0,0l2.42-1.4,2.05,1.18-2.44,1.45-2.05-1.18Zm.55,5.64s0,0,0,0l2.43-1.4,3.64,2.1-2.44,1.45-3.64-2.1Zm1.26,18.27s0,0,0,0l2.42-1.4,5.42,3.12-2.45,1.45-5.41-3.12Zm.6-12.81,0,0,2.43-1.4,2.05,1.19-2.44,1.44-2.05-1.18Zm.95-9.16s0,0,0,0l2.42-1.4,2.05,1.18L289,212.67,287,211.49Zm2.25,19.78s0,0,0,0l2.43-1.4,2.05,1.19-2.44,1.45-2.05-1.19Zm.16-8.68,0,0,2.43-1.4,2,1.19-2.44,1.44-2-1.18Zm.44-4.13s0,0,0,0l2.43-1.4,2,1.18-2.44,1.45-2-1.18Zm.51-5s0,0,0,0l2.42-1.4,2,1.18-2.44,1.45-2-1.18Zm1.81,23.91s0,0,0,0l2.42-1.4,2.06,1.18-2.45,1.45-2-1.18Zm.44-4.13s0,0,0,0l2.43-1.4,2,1.19-2.44,1.45-2-1.19Zm.16-8.68,0,0,2.43-1.4,2.05,1.19-2.44,1.44-2.05-1.18Zm.28,4.54a.1.1,0,0,1,0,0l2.43-1.4,2,1.19-2.44,1.44-2-1.18Zm.16-8.67s0,0,0,0l2.43-1.4,2.05,1.18-2.44,1.45-2.05-1.18Zm1.25-4.6s0,0,0,0l2.42-1.4,2.06,1.18L296.51,217l-2.05-1.18Zm1.07,23.48s0,0,0,0l6.22-3.6,2.05,1.19-6.23,3.64-2.06-1.18Zm.44-4.13s0,0,0,0l2.43-1.4,2.05,1.19L298,236.33,296,235.14Zm.44-4.14a.1.1,0,0,1,0,0l2.43-1.4,2.05,1.19-2.44,1.44L296.4,231Zm.16-8.67s0,0,0,0l2.43-1.4,2.05,1.18-2.44,1.45-2.05-1.18Zm.27,4.54s0,0,0,0l2.43-1.4,2.05,1.18-2.44,1.45-2.05-1.18Zm1-9.14s0,0,0,0l2.42-1.4,2.06,1.18-2.44,1.45-2.05-1.18Zm1.95,15.21a.1.1,0,0,1,0,0l2.43-1.4,2.05,1.19-2.44,1.45L299.76,233Zm.43-4.13s0,0,0,0l2.43-1.4,2.05,1.18L302.25,230l-2.05-1.18Zm.44-4.13s0,0,0,0l2.42-1.4,2.06,1.18-2.45,1.45-2-1.18Zm.54-5s0,0,0,0l2.42-1.4,2.06,1.18-2.44,1.45-2.05-1.18Zm1.95,15.21v0l6.23-3.59,2.05,1.18-6.24,3.65-2.05-1.19Zm.43-4.13s0,0,0,0l2.43-1.4,2.05,1.18-2.44,1.45-2.05-1.18Zm.44-4.13s0,0,0,0l2.42-1.4,2.06,1.18L306,227.81l-2-1.18Zm2.23-5.17v0l1-.61,2.06,1.19-1.06.65-2-1.18Zm1.13,7.11s0,0,0,0l2.42-1.4,2.06,1.18-2.45,1.45-2-1.18Zm2.23-5.17s0,0,0,0l1-.61,2.06,1.19-1.06.65-2-1.18Zm1.13,7.11s0,0,0,0l2.42-1.4,2.06,1.18-2.45,1.45-2-1.18Zm2.23-5.17s0,0,0,0l1-.61,2.06,1.19-1.06.65-2-1.18Zm3.35,1.94s0,0,0,0l1-.61,2.06,1.19-1.06.65-2-1.18Z" style="fill:#BA68C8"></path></g></g><g id="freepik--Device--inject-5"><polygon id="freepik--shadow--inject-5" points="385.58 235.17 408.53 221.92 293.77 155.66 270.82 168.91 385.58 235.17" style="opacity:0.15"></polygon><g id="freepik--Monitor--inject-5"><path d="M320.59,213.6l-16.38-9.48c-1.69-1-2.54-2.25-2.54-3.53v-2.28l15.42-8.75a3.62,3.62,0,0,0,1.63-2.83v-20.2l28.62,16.54v20.2a3.62,3.62,0,0,1-1.63,2.83l-12.88,7.5A13.54,13.54,0,0,1,320.59,213.6Z" style="fill:#e6e6e6"></path><path d="M340.47,206.85v2.27l5.24-3a3.6,3.6,0,0,0,1.63-2.83v-20.2l-5.45-3.15c-.11,1.39-.24,2.82-.35,4.21l3.82,2.22v15.78a3.57,3.57,0,0,1-1.63,2.83Z" style="fill:#e0e0e0"></path><path d="M345.36,202.13a3.6,3.6,0,0,1-1.63,2.83l-10.9,6.36a13.54,13.54,0,0,1-12.24,0l-16.39-9.48c-3.38-1.94-3.38-5.11,0-7.06l10.91-6.36a3.6,3.6,0,0,0,1.63-2.82V169.81l28.62,16.54Z" style="fill:#f5f5f5"></path><path d="M311.79,190.34h0l3.32-1.92a3.6,3.6,0,0,0,1.63-2.82V169.81l28.62,16.54v15.78a3.6,3.6,0,0,1-1.63,2.83l-3.26,1.89Z" style="fill:#ebebeb"></path><path d="M301.67,198.31v2.28c0,1.28.85,2.55,2.53,3.53l16.39,9.47a12.32,12.32,0,0,0,5.84,1.45v-2.27a12.32,12.32,0,0,1-5.84-1.45l-16.39-9.48C302.52,200.87,301.67,199.59,301.67,198.31Z" style="fill:#ebebeb"></path><path d="M391.32,223.93a4.37,4.37,0,0,1-3.95-.07L276.68,160a4.49,4.49,0,0,1-2-3.53V59.54a3.83,3.83,0,0,1,5.87-3.39l110.68,63.91a4.49,4.49,0,0,1,2,3.53v96.88A4.36,4.36,0,0,1,391.32,223.93Z" style="fill:#455a64"></path><path d="M387.37,223.85,276.68,160a4.49,4.49,0,0,1-2-3.53V59.53c0-1.3.91-1.82,2-1.17l110.69,63.9a4.52,4.52,0,0,1,2,3.53v96.89C389.41,224,388.49,224.5,387.37,223.85Z" style="fill:#37474f"></path><path d="M387.67,224.26a3.81,3.81,0,0,0,5.56-3.54v-10.9L389.41,212v10.9C389.41,224.12,388.66,224.65,387.67,224.26Z" style="fill:#e0e0e0"></path><path d="M389.41,212v10.9c0,1.3-.92,1.83-2,1.18L276.68,160.2a4.49,4.49,0,0,1-2-3.53v-10.9Z" style="fill:#fff"></path><path d="M385.58,203.74V127.06a2.72,2.72,0,0,0-1.22-2.12L279.69,64.52c-.67-.39-1.22-.08-1.22.7V141.9a2.69,2.69,0,0,0,1.22,2.12l104.67,60.43C385,204.84,385.58,204.52,385.58,203.74Z" style="fill:#BA68C8"></path><path d="M385.58,203.74V127.06a2.72,2.72,0,0,0-1.22-2.12L279.69,64.52c-.67-.39-1.22-.08-1.22.7V141.9a2.69,2.69,0,0,0,1.22,2.12l104.67,60.43C385,204.84,385.58,204.52,385.58,203.74Z" style="fill:#fff;opacity:0.5"></path><path d="M332,183.07a4.24,4.24,0,0,1,1.91,3.31c0,1.22-.86,1.72-1.91,1.11a4.24,4.24,0,0,1-1.92-3.32C330.11,183,331,182.46,332,183.07Z" style="fill:#455a64"></path><path d="M388.81,123.78a4.4,4.4,0,0,1,.6,2V212l3.82-2.21V123.59a4.2,4.2,0,0,0-.6-2Z" style="fill:#263238"></path></g></g><g id="freepik--Window--inject-5"><g id="freepik--window--inject-5"><path d="M292.75,39.53a1.13,1.13,0,0,1,0-.18.08.08,0,0,1,0,0,.84.84,0,0,1,0-.17.8.8,0,0,1,.11-.25.33.33,0,0,1,.06-.1l.06-.07a.8.8,0,0,1,.13-.13h0a1,1,0,0,1,.17-.1,1.43,1.43,0,0,1,1.31.17l129.18,74.54a4.35,4.35,0,0,1,1.95,3.39v93.49h0v.43a1.33,1.33,0,0,1-.7,1.17l-.09.06-.1.06-.17,0a1,1,0,0,1-.25,0,1.29,1.29,0,0,1-.64-.19l-.05,0h0L422,210.6,294.69,137.12a4.32,4.32,0,0,1-1.95-3.38v-94C292.74,39.69,292.75,39.61,292.75,39.53Z" style="fill:#455a64"></path><path d="M293.38,38.48a1.43,1.43,0,0,1,1.31.17l129.18,74.54a4.35,4.35,0,0,1,1.95,3.39V123l2.49-1.46v-6.33a4.32,4.32,0,0,0-1.95-3.38L297.18,37.24a1.36,1.36,0,0,0-1.41-.12C295.42,37.34,293.8,38.26,293.38,38.48Z" style="fill:#BA68C8"></path><path d="M292.74,39.76c0-1.23.88-1.73,1.95-1.11L423.87,113.2a4.29,4.29,0,0,1,1.95,3.38V123L292.74,46.17Z" style="fill:#BA68C8"></path><g style="opacity:0.5"><path d="M294.69,38.65,423.87,113.2a4,4,0,0,1,1.37,1.44l2.48-1.43a3.91,3.91,0,0,0-1.36-1.43L297.19,37.24a1.38,1.38,0,0,0-1.42-.12c-.35.22-2,1.14-2.38,1.36A1.38,1.38,0,0,1,294.69,38.65Z" style="fill:#fff"></path></g><path d="M428.32,121.5v-6.34a4,4,0,0,0-.59-2l-2.49,1.43a3.84,3.84,0,0,1,.59,1.94V123Z" style="opacity:0.15"></path><path d="M421.42,114.54a2.91,2.91,0,0,1,1.1,2.34c0,.93-.49,1.41-1.1,1.06a2.91,2.91,0,0,1-1.1-2.34C420.32,114.67,420.81,114.19,421.42,114.54Z" style="fill:#455a64"></path><path d="M417.45,112.25a2.89,2.89,0,0,1,1.1,2.33c0,.94-.49,1.41-1.1,1.06a2.89,2.89,0,0,1-1.1-2.33C416.35,112.37,416.84,111.9,417.45,112.25Z" style="fill:#455a64"></path><path d="M413.48,110a2.91,2.91,0,0,1,1.1,2.34c0,.93-.49,1.41-1.1,1.06a2.92,2.92,0,0,1-1.1-2.34C412.38,110.07,412.87,109.6,413.48,110Z" style="fill:#455a64"></path><path d="M425.12,211.69l.1-.06,2.06-1.19a2.06,2.06,0,0,0,1-1.51,2.64,2.64,0,0,0,0-.28V121.49l-2.5,1.47v87.55a1.29,1.29,0,0,1-.61,1.11l-.06,0h0Z" style="fill:#263238;opacity:0.9"></path></g><g id="freepik--Code--inject-5"><path d="M332.31,79.44l27.23,15.69a1.48,1.48,0,0,1,.7,1.15c0,.42-.31.58-.7.35L332.31,80.94a1.49,1.49,0,0,1-.69-1.15C331.62,79.37,331.93,79.22,332.31,79.44Z" style="fill:#BA68C8"></path><path d="M342.72,109.48,353,115.42a1.48,1.48,0,0,1,.69,1.15c0,.41-.31.57-.69.35L342.72,111a1.46,1.46,0,0,1-.7-1.15C342,109.42,342.33,109.26,342.72,109.48Z" style="fill:#e6e6e6"></path><path d="M342.72,115.49,353,121.42a1.51,1.51,0,0,1,.69,1.16c0,.41-.31.57-.69.35L342.72,117a1.48,1.48,0,0,1-.7-1.15C342,115.42,342.33,115.27,342.72,115.49Z" style="fill:#e6e6e6"></path><path d="M362.23,96.68l54.53,31.4a1.51,1.51,0,0,1,.69,1.16c0,.41-.31.57-.69.35l-54.53-31.4a1.51,1.51,0,0,1-.69-1.16C361.54,96.62,361.85,96.46,362.23,96.68Z" style="fill:#BA68C8"></path><path d="M342.94,151.61l16.6,9.61a1.46,1.46,0,0,1,.7,1.15c0,.41-.31.57-.7.35l-16.6-9.61a1.48,1.48,0,0,1-.69-1.15C342.25,151.55,342.56,151.39,342.94,151.61Z" style="fill:#BA68C8"></path><path d="M362.23,162.77l54.53,31.44a1.49,1.49,0,0,1,.69,1.15c0,.42-.31.57-.69.35l-54.53-31.44a1.49,1.49,0,0,1-.69-1.15C361.54,162.7,361.85,162.55,362.23,162.77Z" style="fill:#BA68C8"></path><path d="M332.31,85.46,346,93.34a1.49,1.49,0,0,1,.69,1.15c0,.42-.31.58-.69.35L332.31,87a1.48,1.48,0,0,1-.69-1.15C331.62,85.4,331.93,85.24,332.31,85.46Z" style="fill:#BA68C8"></path><path d="M332.31,85.46,346,93.34a1.49,1.49,0,0,1,.69,1.15c0,.42-.31.58-.69.35L332.31,87a1.48,1.48,0,0,1-.69-1.15C331.62,85.4,331.93,85.24,332.31,85.46Z" style="fill:#fff;opacity:0.6000000000000001"></path><path d="M332.31,91.46l6.42,3.7a1.49,1.49,0,0,1,.69,1.15c0,.41-.31.57-.69.35L332.31,93a1.49,1.49,0,0,1-.69-1.15C331.62,91.39,331.93,91.24,332.31,91.46Z" style="fill:#BA68C8"></path><path d="M332.31,91.46l6.42,3.7a1.49,1.49,0,0,1,.69,1.15c0,.41-.31.57-.69.35L332.31,93a1.49,1.49,0,0,1-.69-1.15C331.62,91.39,331.93,91.24,332.31,91.46Z" style="fill:#fff;opacity:0.6000000000000001"></path><path d="M332.31,103.47l6.42,3.7a1.51,1.51,0,0,1,.69,1.16c0,.41-.31.57-.69.35l-6.42-3.7a1.51,1.51,0,0,1-.69-1.16C331.62,103.41,331.93,103.25,332.31,103.47Z" style="fill:#BA68C8"></path><path d="M332.31,103.47l6.42,3.7a1.51,1.51,0,0,1,.69,1.16c0,.41-.31.57-.69.35l-6.42-3.7a1.51,1.51,0,0,1-.69-1.16C331.62,103.41,331.93,103.25,332.31,103.47Z" style="fill:#fff;opacity:0.6000000000000001"></path><path d="M332.31,109.48l6.42,3.7a1.49,1.49,0,0,1,.69,1.15c0,.42-.31.58-.69.35l-6.42-3.7a1.48,1.48,0,0,1-.69-1.15C331.62,109.42,331.93,109.26,332.31,109.48Z" style="fill:#BA68C8"></path><path d="M332.31,109.48l6.42,3.7a1.49,1.49,0,0,1,.69,1.15c0,.42-.31.58-.69.35l-6.42-3.7a1.48,1.48,0,0,1-.69-1.15C331.62,109.42,331.93,109.26,332.31,109.48Z" style="fill:#fff;opacity:0.6000000000000001"></path><path d="M348.72,94.89l8.22,4.77a1.48,1.48,0,0,1,.7,1.15c0,.42-.31.57-.7.35l-8.22-4.76a1.5,1.5,0,0,1-.7-1.16C348,94.83,348.33,94.67,348.72,94.89Z" style="fill:#BA68C8"></path><path d="M348.72,94.89l8.22,4.77a1.48,1.48,0,0,1,.7,1.15c0,.42-.31.57-.7.35l-8.22-4.76a1.5,1.5,0,0,1-.7-1.16C348,94.83,348.33,94.67,348.72,94.89Z" style="fill:#fff;opacity:0.6000000000000001"></path><path d="M361.44,138.33l55.32,31.85a1.48,1.48,0,0,1,.69,1.15c0,.41-.31.57-.69.35l-55.32-31.85a1.48,1.48,0,0,1-.7-1.15C360.74,138.26,361.05,138.11,361.44,138.33Z" style="fill:#fff"></path><path d="M408.53,159.4l8.23,4.76a1.49,1.49,0,0,1,.69,1.15c0,.42-.31.57-.69.35l-8.23-4.76a1.49,1.49,0,0,1-.69-1.15C407.84,159.33,408.15,159.17,408.53,159.4Z" style="fill:#fff"></path><path d="M350.52,126l55.32,31.85a1.51,1.51,0,0,1,.69,1.16c0,.41-.31.57-.69.35L350.52,127.5a1.5,1.5,0,0,1-.69-1.16C349.83,125.93,350.14,125.77,350.52,126Z" style="fill:#fff"></path><path d="M342.72,97.47l13.71,7.88a1.46,1.46,0,0,1,.7,1.15c0,.41-.31.57-.7.35L342.72,99a1.48,1.48,0,0,1-.7-1.15C342,97.4,342.33,97.24,342.72,97.47Z" style="fill:#BA68C8"></path><path d="M342.72,97.47l13.71,7.88a1.46,1.46,0,0,1,.7,1.15c0,.41-.31.57-.7.35L342.72,99a1.48,1.48,0,0,1-.7-1.15C342,97.4,342.33,97.24,342.72,97.47Z" style="fill:#fff;opacity:0.6000000000000001"></path><path d="M359.12,106.9,416.35,140a1.51,1.51,0,0,1,.69,1.16c0,.41-.31.57-.69.35L359.12,108.4a1.49,1.49,0,0,1-.69-1.15C358.43,106.83,358.74,106.68,359.12,106.9Z" style="fill:#BA68C8"></path><path d="M359.12,106.9,416.35,140a1.51,1.51,0,0,1,.69,1.16c0,.41-.31.57-.69.35L359.12,108.4a1.49,1.49,0,0,1-.69-1.15C358.43,106.83,358.74,106.68,359.12,106.9Z" style="fill:#fff;opacity:0.6000000000000001"></path><path d="M342.72,133.64l74,42.69a1.49,1.49,0,0,1,.69,1.15c0,.42-.31.58-.69.36l-74-42.7A1.48,1.48,0,0,1,342,134C342,133.57,342.33,133.42,342.72,133.64Z" style="fill:#e6e6e6"></path><path d="M332.31,127.63l6.42,3.7a1.49,1.49,0,0,1,.69,1.15c0,.42-.31.57-.69.35l-6.42-3.7a1.48,1.48,0,0,1-.69-1.15C331.62,127.57,331.93,127.41,332.31,127.63Z" style="fill:#BA68C8"></path><path d="M332.31,127.63l6.42,3.7a1.49,1.49,0,0,1,.69,1.15c0,.42-.31.57-.69.35l-6.42-3.7a1.48,1.48,0,0,1-.69-1.15C331.62,127.57,331.93,127.41,332.31,127.63Z" style="fill:#fff;opacity:0.6000000000000001"></path><path d="M342.72,139.64l74,42.7a1.49,1.49,0,0,1,.69,1.15c0,.42-.31.57-.69.35l-74-42.7A1.46,1.46,0,0,1,342,140C342,139.58,342.33,139.42,342.72,139.64Z" style="fill:#e6e6e6"></path><path d="M332.31,133.64l6.42,3.7a1.48,1.48,0,0,1,.69,1.15c0,.41-.31.57-.69.35l-6.42-3.7a1.49,1.49,0,0,1-.69-1.15C331.62,133.57,331.93,133.42,332.31,133.64Z" style="fill:#BA68C8"></path><path d="M332.31,133.64l6.42,3.7a1.48,1.48,0,0,1,.69,1.15c0,.41-.31.57-.69.35l-6.42-3.7a1.49,1.49,0,0,1-.69-1.15C331.62,133.57,331.93,133.42,332.31,133.64Z" style="fill:#fff;opacity:0.6000000000000001"></path><path d="M342.72,145.65l74,42.7a1.48,1.48,0,0,1,.69,1.15c0,.41-.31.57-.69.35l-74-42.7A1.48,1.48,0,0,1,342,146C342,145.58,342.33,145.43,342.72,145.65Z" style="fill:#e6e6e6"></path><path d="M332.31,139.64l6.42,3.7a1.49,1.49,0,0,1,.69,1.15c0,.42-.31.58-.69.36l-6.42-3.71a1.48,1.48,0,0,1-.69-1.15C331.62,139.58,331.93,139.42,332.31,139.64Z" style="fill:#BA68C8"></path><path d="M332.31,139.64l6.42,3.7a1.49,1.49,0,0,1,.69,1.15c0,.42-.31.58-.69.36l-6.42-3.71a1.48,1.48,0,0,1-.69-1.15C331.62,139.58,331.93,139.42,332.31,139.64Z" style="fill:#fff;opacity:0.6000000000000001"></path><g style="opacity:0.6000000000000001"><path d="M322.31,73.41l3.77,2.18a1.51,1.51,0,0,1,.68,1.19v1.39c0,.43-.3.61-.68.39l-3.77-2.18a1.5,1.5,0,0,1-.69-1.18V73.81C321.62,73.37,321.93,73.2,322.31,73.41Z" style="fill:#fff"></path><path d="M322.31,79.48l3.77,2.18a1.51,1.51,0,0,1,.68,1.18v1.39c0,.44-.3.61-.68.4l-3.77-2.18a1.52,1.52,0,0,1-.69-1.19V79.87C321.62,79.44,321.93,79.26,322.31,79.48Z" style="fill:#fff"></path><path d="M322.31,85.54l3.77,2.18a1.51,1.51,0,0,1,.68,1.19V90.3c0,.43-.3.61-.68.39l-3.77-2.18a1.52,1.52,0,0,1-.69-1.18V85.94C321.62,85.5,321.93,85.33,322.31,85.54Z" style="fill:#fff"></path><path d="M322.31,91.61l3.77,2.18a1.51,1.51,0,0,1,.68,1.18v1.39c0,.44-.3.61-.68.4l-3.77-2.18a1.52,1.52,0,0,1-.69-1.19V92C321.62,91.57,321.93,91.39,322.31,91.61Z" style="fill:#fff"></path><path d="M322.31,97.67l3.77,2.18a1.51,1.51,0,0,1,.68,1.19v1.38c0,.44-.3.62-.68.4l-3.77-2.18a1.52,1.52,0,0,1-.69-1.18V98.07C321.62,97.63,321.93,97.45,322.31,97.67Z" style="fill:#fff"></path><path d="M322.31,103.74l3.77,2.18a1.49,1.49,0,0,1,.68,1.18v1.39c0,.44-.3.61-.68.4l-3.77-2.18a1.52,1.52,0,0,1-.69-1.19v-1.39C321.62,103.7,321.93,103.52,322.31,103.74Z" style="fill:#fff"></path><path d="M322.31,109.8l3.77,2.18a1.51,1.51,0,0,1,.68,1.19v1.38c0,.44-.3.62-.68.4l-3.77-2.18a1.52,1.52,0,0,1-.69-1.18V110.2C321.62,109.76,321.93,109.58,322.31,109.8Z" style="fill:#fff"></path><path d="M322.31,115.87l3.77,2.18a1.49,1.49,0,0,1,.68,1.18v1.39c0,.44-.3.61-.68.39l-3.77-2.17a1.52,1.52,0,0,1-.69-1.19v-1.39C321.62,115.83,321.93,115.65,322.31,115.87Z" style="fill:#fff"></path><path d="M322.31,121.93l3.77,2.18a1.51,1.51,0,0,1,.68,1.19v1.38c0,.44-.3.62-.68.4l-3.77-2.18a1.52,1.52,0,0,1-.69-1.19v-1.38C321.62,121.89,321.93,121.71,322.31,121.93Z" style="fill:#fff"></path><path d="M322.31,128l3.77,2.18a1.48,1.48,0,0,1,.68,1.18v1.39c0,.44-.3.61-.68.39L322.31,131a1.52,1.52,0,0,1-.69-1.19v-1.39C321.62,128,321.93,127.78,322.31,128Z" style="fill:#fff"></path><path d="M322.31,134.06l3.77,2.18a1.51,1.51,0,0,1,.68,1.19v1.38c0,.44-.3.62-.68.4L322.31,137a1.52,1.52,0,0,1-.69-1.19v-1.38C321.62,134,321.93,133.84,322.31,134.06Z" style="fill:#fff"></path><path d="M322.31,140.13l3.77,2.17a1.51,1.51,0,0,1,.68,1.19v1.39c0,.44-.3.61-.68.39l-3.77-2.17a1.52,1.52,0,0,1-.69-1.19v-1.39C321.62,140.09,321.93,139.91,322.31,140.13Z" style="fill:#fff"></path></g><path d="M297.28,53.71l20.4,11.78a3,3,0,0,1,1.37,2.37V91.42c0,.87-.61,1.23-1.37.79l-20.4-11.78a3,3,0,0,1-1.37-2.37V54.51C295.91,53.63,296.52,53.28,297.28,53.71Z" style="fill:#37474f"></path><path d="M299.17,77.06l1.88,1.09a1.51,1.51,0,0,1,.7,1.15c0,.42-.32.57-.7.35l-1.88-1.09a1.48,1.48,0,0,1-.69-1.15C298.48,77,298.79,76.84,299.17,77.06Z" style="fill:#BA68C8"></path><path d="M299.17,77.06l1.88,1.09a1.51,1.51,0,0,1,.7,1.15c0,.42-.32.57-.7.35l-1.88-1.09a1.48,1.48,0,0,1-.69-1.15C298.48,77,298.79,76.84,299.17,77.06Z" style="fill:#fff;opacity:0.6000000000000001"></path><path d="M299.17,57.77l1.88,1.09a1.51,1.51,0,0,1,.7,1.15c0,.42-.32.57-.7.35l-1.88-1.08a1.51,1.51,0,0,1-.69-1.16C298.48,57.71,298.79,57.55,299.17,57.77Z" style="fill:#BA68C8"></path><path d="M299.17,57.77l1.88,1.09a1.51,1.51,0,0,1,.7,1.15c0,.42-.32.57-.7.35l-1.88-1.08a1.51,1.51,0,0,1-.69-1.16C298.48,57.71,298.79,57.55,299.17,57.77Z" style="fill:#fff;opacity:0.6000000000000001"></path><path d="M301.81,63.15l1.88,1.08a1.49,1.49,0,0,1,.69,1.15c0,.42-.31.58-.69.35l-1.88-1.08a1.49,1.49,0,0,1-.69-1.15C301.12,63.08,301.43,62.93,301.81,63.15Z" style="fill:#BA68C8"></path><path d="M301.81,63.15l1.88,1.08a1.49,1.49,0,0,1,.69,1.15c0,.42-.31.58-.69.35l-1.88-1.08a1.49,1.49,0,0,1-.69-1.15C301.12,63.08,301.43,62.93,301.81,63.15Z" style="fill:#fff;opacity:0.6000000000000001"></path><path d="M301.81,67l1.88,1.09a1.49,1.49,0,0,1,.69,1.15c0,.42-.31.57-.69.35l-1.88-1.08a1.49,1.49,0,0,1-.69-1.15C301.12,66.93,301.43,66.77,301.81,67Z" style="fill:#BA68C8"></path><path d="M301.81,67l1.88,1.09a1.49,1.49,0,0,1,.69,1.15c0,.42-.31.57-.69.35l-1.88-1.08a1.49,1.49,0,0,1-.69-1.15C301.12,66.93,301.43,66.77,301.81,67Z" style="fill:#fff;opacity:0.6000000000000001"></path><path d="M299.17,69.34l1.88,1.09a1.51,1.51,0,0,1,.7,1.15c0,.42-.32.57-.7.35l-1.88-1.08a1.5,1.5,0,0,1-.69-1.16C298.48,69.28,298.79,69.12,299.17,69.34Z" style="fill:#BA68C8"></path><path d="M299.17,69.34l1.88,1.09a1.51,1.51,0,0,1,.7,1.15c0,.42-.32.57-.7.35l-1.88-1.08a1.5,1.5,0,0,1-.69-1.16C298.48,69.28,298.79,69.12,299.17,69.34Z" style="fill:#fff;opacity:0.6000000000000001"></path><path d="M301.81,74.72l1.88,1.09a1.48,1.48,0,0,1,.69,1.15c0,.41-.31.57-.69.35l-1.88-1.09a1.48,1.48,0,0,1-.69-1.15C301.12,74.66,301.43,74.5,301.81,74.72Z" style="fill:#BA68C8"></path><path d="M301.81,74.72l1.88,1.09a1.48,1.48,0,0,1,.69,1.15c0,.41-.31.57-.69.35l-1.88-1.09a1.48,1.48,0,0,1-.69-1.15C301.12,74.66,301.43,74.5,301.81,74.72Z" style="fill:#fff;opacity:0.6000000000000001"></path><path d="M304.32,60.74l11.46,6.63a1.46,1.46,0,0,1,.7,1.15c0,.41-.31.57-.7.35l-11.46-6.62a1.48,1.48,0,0,1-.7-1.16C303.62,60.68,303.93,60.52,304.32,60.74Z" style="fill:#BA68C8"></path><path d="M304.32,60.74l11.46,6.63a1.46,1.46,0,0,1,.7,1.15c0,.41-.31.57-.7.35l-11.46-6.62a1.48,1.48,0,0,1-.7-1.16C303.62,60.68,303.93,60.52,304.32,60.74Z" style="fill:#fff;opacity:0.8"></path><path d="M304.32,80l11.46,6.63a1.46,1.46,0,0,1,.7,1.15c0,.41-.31.57-.7.35l-11.46-6.62a1.5,1.5,0,0,1-.7-1.16C303.62,80,303.93,79.81,304.32,80Z" style="fill:#BA68C8"></path><path d="M304.32,80l11.46,6.63a1.46,1.46,0,0,1,.7,1.15c0,.41-.31.57-.7.35l-11.46-6.62a1.5,1.5,0,0,1-.7-1.16C303.62,80,303.93,79.81,304.32,80Z" style="fill:#fff;opacity:0.8"></path><path d="M307,66.12l8.82,5.1a1.48,1.48,0,0,1,.7,1.16c0,.41-.31.57-.7.35L307,67.62a1.48,1.48,0,0,1-.7-1.15C306.26,66.05,306.57,65.9,307,66.12Z" style="fill:#BA68C8"></path><path d="M307,66.12l8.82,5.1a1.48,1.48,0,0,1,.7,1.16c0,.41-.31.57-.7.35L307,67.62a1.48,1.48,0,0,1-.7-1.15C306.26,66.05,306.57,65.9,307,66.12Z" style="fill:#fff;opacity:0.8"></path><path d="M307,70l8.82,5.11a1.48,1.48,0,0,1,.7,1.15c0,.42-.31.57-.7.35L307,71.48a1.48,1.48,0,0,1-.7-1.15C306.26,69.91,306.57,69.75,307,70Z" style="fill:#BA68C8"></path><path d="M307,70l8.82,5.11a1.48,1.48,0,0,1,.7,1.15c0,.42-.31.57-.7.35L307,71.48a1.48,1.48,0,0,1-.7-1.15C306.26,69.91,306.57,69.75,307,70Z" style="fill:#fff;opacity:0.8"></path><path d="M304.32,72.32l11.46,6.62a1.48,1.48,0,0,1,.7,1.15c0,.42-.31.57-.7.35l-11.46-6.62a1.48,1.48,0,0,1-.7-1.15C303.62,72.25,303.93,72.1,304.32,72.32Z" style="fill:#BA68C8"></path><path d="M304.32,72.32l11.46,6.62a1.48,1.48,0,0,1,.7,1.15c0,.42-.31.57-.7.35l-11.46-6.62a1.48,1.48,0,0,1-.7-1.15C303.62,72.25,303.93,72.1,304.32,72.32Z" style="fill:#fff;opacity:0.8"></path><path d="M307,77.69l8.82,5.11a1.46,1.46,0,0,1,.7,1.15c0,.41-.31.57-.7.35L307,79.19a1.46,1.46,0,0,1-.7-1.15C306.26,77.63,306.57,77.47,307,77.69Z" style="fill:#BA68C8"></path><path d="M307,77.69l8.82,5.11a1.46,1.46,0,0,1,.7,1.15c0,.41-.31.57-.7.35L307,79.19a1.46,1.46,0,0,1-.7-1.15C306.26,77.63,306.57,77.47,307,77.69Z" style="fill:#fff;opacity:0.8"></path><path d="M297.28,84.87l20.4,11.77A3,3,0,0,1,319.05,99v46.54c0,.88-.61,1.23-1.37.79l-20.4-11.78a3,3,0,0,1-1.37-2.37V85.66C295.91,84.78,296.52,84.43,297.28,84.87Z" style="fill:#37474f"></path><path d="M299.17,88.92,301.05,90a1.51,1.51,0,0,1,.7,1.15c0,.42-.32.57-.7.35l-1.88-1.08a1.49,1.49,0,0,1-.69-1.15C298.48,88.86,298.79,88.7,299.17,88.92Z" style="fill:#BA68C8"></path><path d="M299.17,88.92,301.05,90a1.51,1.51,0,0,1,.7,1.15c0,.42-.32.57-.7.35l-1.88-1.08a1.49,1.49,0,0,1-.69-1.15C298.48,88.86,298.79,88.7,299.17,88.92Z" style="fill:#fff;opacity:0.6000000000000001"></path><path d="M301.81,94.3l1.88,1.08a1.5,1.5,0,0,1,.69,1.16c0,.41-.31.57-.69.35l-1.88-1.09a1.49,1.49,0,0,1-.69-1.15C301.12,94.23,301.43,94.08,301.81,94.3Z" style="fill:#BA68C8"></path><path d="M301.81,94.3l1.88,1.08a1.5,1.5,0,0,1,.69,1.16c0,.41-.31.57-.69.35l-1.88-1.09a1.49,1.49,0,0,1-.69-1.15C301.12,94.23,301.43,94.08,301.81,94.3Z" style="fill:#fff;opacity:0.6000000000000001"></path><path d="M301.81,98.15l1.88,1.08a1.49,1.49,0,0,1,.69,1.15c0,.42-.31.57-.69.35l-1.88-1.08a1.49,1.49,0,0,1-.69-1.15C301.12,98.08,301.43,97.92,301.81,98.15Z" style="fill:#BA68C8"></path><path d="M301.81,98.15l1.88,1.08a1.49,1.49,0,0,1,.69,1.15c0,.42-.31.57-.69.35l-1.88-1.08a1.49,1.49,0,0,1-.69-1.15C301.12,98.08,301.43,97.92,301.81,98.15Z" style="fill:#fff;opacity:0.6000000000000001"></path><path d="M299.17,100.5l1.88,1.08a1.51,1.51,0,0,1,.7,1.15c0,.42-.32.57-.7.35L299.17,102a1.49,1.49,0,0,1-.69-1.15C298.48,100.43,298.79,100.27,299.17,100.5Z" style="fill:#BA68C8"></path><path d="M299.17,100.5l1.88,1.08a1.51,1.51,0,0,1,.7,1.15c0,.42-.32.57-.7.35L299.17,102a1.49,1.49,0,0,1-.69-1.15C298.48,100.43,298.79,100.27,299.17,100.5Z" style="fill:#fff;opacity:0.6000000000000001"></path><path d="M304.32,91.9l11.46,6.62a1.46,1.46,0,0,1,.7,1.15c0,.41-.31.57-.7.35L304.32,93.4a1.48,1.48,0,0,1-.7-1.15C303.62,91.83,303.93,91.67,304.32,91.9Z" style="fill:#BA68C8"></path><path d="M304.32,91.9l11.46,6.62a1.46,1.46,0,0,1,.7,1.15c0,.41-.31.57-.7.35L304.32,93.4a1.48,1.48,0,0,1-.7-1.15C303.62,91.83,303.93,91.67,304.32,91.9Z" style="fill:#fff;opacity:0.8"></path><path d="M307,97.27l8.82,5.11a1.46,1.46,0,0,1,.7,1.15c0,.41-.31.57-.7.35L307,98.77a1.48,1.48,0,0,1-.7-1.15C306.26,97.2,306.57,97.05,307,97.27Z" style="fill:#BA68C8"></path><path d="M307,97.27l8.82,5.11a1.46,1.46,0,0,1,.7,1.15c0,.41-.31.57-.7.35L307,98.77a1.48,1.48,0,0,1-.7-1.15C306.26,97.2,306.57,97.05,307,97.27Z" style="fill:#fff;opacity:0.8"></path><path d="M307,101.13l8.82,5.1a1.48,1.48,0,0,1,.7,1.15c0,.42-.31.58-.7.36L307,102.63a1.48,1.48,0,0,1-.7-1.15C306.26,101.06,306.57,100.9,307,101.13Z" style="fill:#BA68C8"></path><path d="M307,101.13l8.82,5.1a1.48,1.48,0,0,1,.7,1.15c0,.42-.31.58-.7.36L307,102.63a1.48,1.48,0,0,1-.7-1.15C306.26,101.06,306.57,100.9,307,101.13Z" style="fill:#fff;opacity:0.8"></path><path d="M304.32,103.47l11.46,6.62a1.48,1.48,0,0,1,.7,1.15c0,.42-.31.57-.7.35L304.32,105a1.48,1.48,0,0,1-.7-1.15C303.62,103.4,303.93,103.25,304.32,103.47Z" style="fill:#BA68C8"></path><path d="M304.32,103.47l11.46,6.62a1.48,1.48,0,0,1,.7,1.15c0,.42-.31.57-.7.35L304.32,105a1.48,1.48,0,0,1-.7-1.15C303.62,103.4,303.93,103.25,304.32,103.47Z" style="fill:#fff;opacity:0.8"></path><path d="M301.81,105.89l1.88,1.09a1.49,1.49,0,0,1,.69,1.15c0,.42-.31.57-.69.35l-1.88-1.08a1.49,1.49,0,0,1-.69-1.15C301.12,105.83,301.43,105.67,301.81,105.89Z" style="fill:#BA68C8"></path><path d="M301.81,105.89l1.88,1.09a1.49,1.49,0,0,1,.69,1.15c0,.42-.31.57-.69.35l-1.88-1.08a1.49,1.49,0,0,1-.69-1.15C301.12,105.83,301.43,105.67,301.81,105.89Z" style="fill:#fff;opacity:0.6000000000000001"></path><path d="M301.81,109.74l1.88,1.09a1.49,1.49,0,0,1,.69,1.15c0,.41-.31.57-.69.35l-1.88-1.09a1.48,1.48,0,0,1-.69-1.15C301.12,109.68,301.43,109.52,301.81,109.74Z" style="fill:#BA68C8"></path><path d="M301.81,109.74l1.88,1.09a1.49,1.49,0,0,1,.69,1.15c0,.41-.31.57-.69.35l-1.88-1.09a1.48,1.48,0,0,1-.69-1.15C301.12,109.68,301.43,109.52,301.81,109.74Z" style="fill:#fff;opacity:0.6000000000000001"></path><path d="M307,108.86l8.82,5.11a1.48,1.48,0,0,1,.7,1.15c0,.42-.31.58-.7.35l-8.82-5.1a1.48,1.48,0,0,1-.7-1.15C306.26,108.8,306.57,108.64,307,108.86Z" style="fill:#BA68C8"></path><path d="M307,108.86l8.82,5.11a1.48,1.48,0,0,1,.7,1.15c0,.42-.31.58-.7.35l-8.82-5.1a1.48,1.48,0,0,1-.7-1.15C306.26,108.8,306.57,108.64,307,108.86Z" style="fill:#fff;opacity:0.8"></path><path d="M307,112.72l8.82,5.11a1.48,1.48,0,0,1,.7,1.15c0,.42-.31.57-.7.35L307,114.22a1.46,1.46,0,0,1-.7-1.15C306.26,112.66,306.57,112.5,307,112.72Z" style="fill:#BA68C8"></path><path d="M307,112.72l8.82,5.11a1.48,1.48,0,0,1,.7,1.15c0,.42-.31.57-.7.35L307,114.22a1.46,1.46,0,0,1-.7-1.15C306.26,112.66,306.57,112.5,307,112.72Z" style="fill:#fff;opacity:0.8"></path><path d="M299.17,119.83l1.88,1.09a1.49,1.49,0,0,1,.7,1.15c0,.41-.32.57-.7.35l-1.88-1.09a1.48,1.48,0,0,1-.69-1.15C298.48,119.77,298.79,119.61,299.17,119.83Z" style="fill:#BA68C8"></path><path d="M299.17,119.83l1.88,1.09a1.49,1.49,0,0,1,.7,1.15c0,.41-.32.57-.7.35l-1.88-1.09a1.48,1.48,0,0,1-.69-1.15C298.48,119.77,298.79,119.61,299.17,119.83Z" style="fill:#fff;opacity:0.6000000000000001"></path><path d="M304.32,122.8l11.46,6.63a1.46,1.46,0,0,1,.7,1.15c0,.41-.31.57-.7.35l-11.46-6.62a1.48,1.48,0,0,1-.7-1.15C303.62,122.74,303.93,122.58,304.32,122.8Z" style="fill:#BA68C8"></path><path d="M304.32,122.8l11.46,6.63a1.46,1.46,0,0,1,.7,1.15c0,.41-.31.57-.7.35l-11.46-6.62a1.48,1.48,0,0,1-.7-1.15C303.62,122.74,303.93,122.58,304.32,122.8Z" style="fill:#fff;opacity:0.8"></path><path d="M301.81,125.23l1.88,1.09a1.48,1.48,0,0,1,.69,1.15c0,.41-.31.57-.69.35l-1.88-1.09a1.48,1.48,0,0,1-.69-1.15C301.12,125.17,301.43,125,301.81,125.23Z" style="fill:#BA68C8"></path><path d="M301.81,125.23l1.88,1.09a1.48,1.48,0,0,1,.69,1.15c0,.41-.31.57-.69.35l-1.88-1.09a1.48,1.48,0,0,1-.69-1.15C301.12,125.17,301.43,125,301.81,125.23Z" style="fill:#fff;opacity:0.6000000000000001"></path><path d="M301.81,129.08l1.88,1.08a1.51,1.51,0,0,1,.69,1.16c0,.41-.31.57-.69.35l-1.88-1.09a1.49,1.49,0,0,1-.69-1.15C301.12,129,301.43,128.86,301.81,129.08Z" style="fill:#BA68C8"></path><path d="M301.81,129.08l1.88,1.08a1.51,1.51,0,0,1,.69,1.16c0,.41-.31.57-.69.35l-1.88-1.09a1.49,1.49,0,0,1-.69-1.15C301.12,129,301.43,128.86,301.81,129.08Z" style="fill:#fff;opacity:0.6000000000000001"></path><path d="M307,128.2l8.82,5.11a1.46,1.46,0,0,1,.7,1.15c0,.41-.31.57-.7.35L307,129.7a1.46,1.46,0,0,1-.7-1.15C306.26,128.14,306.57,128,307,128.2Z" style="fill:#BA68C8"></path><path d="M307,128.2l8.82,5.11a1.46,1.46,0,0,1,.7,1.15c0,.41-.31.57-.7.35L307,129.7a1.46,1.46,0,0,1-.7-1.15C306.26,128.14,306.57,128,307,128.2Z" style="fill:#fff;opacity:0.8"></path><path d="M307,132.06l8.82,5.11a1.46,1.46,0,0,1,.7,1.15c0,.41-.31.57-.7.35L307,133.56a1.48,1.48,0,0,1-.7-1.15C306.26,132,306.57,131.84,307,132.06Z" style="fill:#BA68C8"></path><path d="M307,132.06l8.82,5.11a1.46,1.46,0,0,1,.7,1.15c0,.41-.31.57-.7.35L307,133.56a1.48,1.48,0,0,1-.7-1.15C306.26,132,306.57,131.84,307,132.06Z" style="fill:#fff;opacity:0.8"></path><path d="M301.81,113.57l1.88,1.09a1.48,1.48,0,0,1,.69,1.15c0,.41-.31.57-.69.35l-1.88-1.09a1.48,1.48,0,0,1-.69-1.15C301.12,113.51,301.43,113.35,301.81,113.57Z" style="fill:#BA68C8"></path><path d="M301.81,113.57l1.88,1.09a1.48,1.48,0,0,1,.69,1.15c0,.41-.31.57-.69.35l-1.88-1.09a1.48,1.48,0,0,1-.69-1.15C301.12,113.51,301.43,113.35,301.81,113.57Z" style="fill:#fff;opacity:0.6000000000000001"></path><path d="M299.17,115.92l1.88,1.09a1.49,1.49,0,0,1,.7,1.15c0,.41-.32.57-.7.35l-1.88-1.09a1.48,1.48,0,0,1-.69-1.15C298.48,115.86,298.79,115.7,299.17,115.92Z" style="fill:#BA68C8"></path><path d="M299.17,115.92l1.88,1.09a1.49,1.49,0,0,1,.7,1.15c0,.41-.32.57-.7.35l-1.88-1.09a1.48,1.48,0,0,1-.69-1.15C298.48,115.86,298.79,115.7,299.17,115.92Z" style="fill:#fff;opacity:0.6000000000000001"></path><path d="M307,116.55l8.82,5.11a1.46,1.46,0,0,1,.7,1.15c0,.41-.31.57-.7.35L307,118.05a1.46,1.46,0,0,1-.7-1.15C306.26,116.49,306.57,116.33,307,116.55Z" style="fill:#BA68C8"></path><path d="M307,116.55l8.82,5.11a1.46,1.46,0,0,1,.7,1.15c0,.41-.31.57-.7.35L307,118.05a1.46,1.46,0,0,1-.7-1.15C306.26,116.49,306.57,116.33,307,116.55Z" style="fill:#fff;opacity:0.8"></path><path d="M304.32,118.89l11.46,6.63a1.46,1.46,0,0,1,.7,1.15c0,.41-.31.57-.7.35l-11.46-6.62a1.5,1.5,0,0,1-.7-1.16C303.62,118.83,303.93,118.67,304.32,118.89Z" style="fill:#BA68C8"></path><path d="M304.32,118.89l11.46,6.63a1.46,1.46,0,0,1,.7,1.15c0,.41-.31.57-.7.35l-11.46-6.62a1.5,1.5,0,0,1-.7-1.16C303.62,118.83,303.93,118.67,304.32,118.89Z" style="fill:#fff;opacity:0.8"></path><path d="M299.17,131.48l1.88,1.09a1.49,1.49,0,0,1,.7,1.15c0,.41-.32.57-.7.35L299.17,133a1.48,1.48,0,0,1-.69-1.15C298.48,131.42,298.79,131.26,299.17,131.48Z" style="fill:#BA68C8"></path><path d="M299.17,131.48l1.88,1.09a1.49,1.49,0,0,1,.7,1.15c0,.41-.32.57-.7.35L299.17,133a1.48,1.48,0,0,1-.69-1.15C298.48,131.42,298.79,131.26,299.17,131.48Z" style="fill:#fff;opacity:0.6000000000000001"></path><path d="M304.32,134.46l11.46,6.62a1.46,1.46,0,0,1,.7,1.15c0,.41-.31.57-.7.35L304.32,136a1.48,1.48,0,0,1-.7-1.15C303.62,134.39,303.93,134.23,304.32,134.46Z" style="fill:#BA68C8"></path><path d="M304.32,134.46l11.46,6.62a1.46,1.46,0,0,1,.7,1.15c0,.41-.31.57-.7.35L304.32,136a1.48,1.48,0,0,1-.7-1.15C303.62,134.39,303.93,134.23,304.32,134.46Z" style="fill:#fff;opacity:0.8"></path></g></g><g id="freepik--window--inject-5"><g style="opacity:0.8"><path d="M410.78,150.29v76.38a3.51,3.51,0,0,0,1.59,2.75l43.88,25.32a1.1,1.1,0,0,0,.53.15l.2,0,.13,0,.09,0,.09-.06.09-.08a1.22,1.22,0,0,0,.29-.42,1.88,1.88,0,0,0,.17-.8v-76a3.5,3.5,0,0,0-1.59-2.75l-43.88-25.29a1.16,1.16,0,0,0-1.07-.14l-.13.08h0l-.11.1a.21.21,0,0,0,0,.06.26.26,0,0,0-.05.09.54.54,0,0,0-.1.2.58.58,0,0,0,0,.14,0,0,0,0,0,0,0l0,.15C410.79,150.16,410.78,150.23,410.78,150.29Z" style="fill:#455a64"></path></g><path d="M411.3,149.24a1.16,1.16,0,0,1,1.07.14l43.88,25.29a3.5,3.5,0,0,1,1.59,2.75v5.18l2.53-1.46V176a3.48,3.48,0,0,0-1.59-2.74L414.9,148a1.11,1.11,0,0,0-1.15-.1C413.46,148,411.64,149.07,411.3,149.24Z" style="fill:#BA68C8"></path><path d="M410.79,150.28c0-1,.71-1.4,1.58-.9l43.88,25.29a3.51,3.51,0,0,1,1.59,2.75v5.18l-47-27.11Z" style="fill:#BA68C8"></path><g style="opacity:0.5"><path d="M412.37,149.38l43.88,25.29a3.27,3.27,0,0,1,1.12,1.18l2.52-1.45a3.23,3.23,0,0,0-1.11-1.15L414.9,148a1.11,1.11,0,0,0-1.15-.1c-.28.18-2.11,1.2-2.44,1.38A1.11,1.11,0,0,1,412.37,149.38Z" style="fill:#fff"></path></g><path d="M460.37,181.15V176a3.36,3.36,0,0,0-.48-1.59l-2.53,1.44a3.16,3.16,0,0,1,.48,1.58v5.18Z" style="opacity:0.15"></path><path d="M455.53,176.8a2.37,2.37,0,0,1,.9,1.9c0,.76-.4,1.15-.9.86a2.36,2.36,0,0,1-.9-1.89C454.63,176.9,455,176.52,455.53,176.8Z" style="fill:#455a64"></path><path d="M452.3,174.94a2.33,2.33,0,0,1,.9,1.89c0,.77-.4,1.15-.9.87a2.39,2.39,0,0,1-.89-1.9C451.41,175,451.81,174.65,452.3,174.94Z" style="fill:#455a64"></path><path d="M449.08,173.07A2.39,2.39,0,0,1,450,175c0,.76-.4,1.15-.89.86a2.35,2.35,0,0,1-.9-1.9C448.18,173.17,448.58,172.79,449.08,173.07Z" style="fill:#455a64"></path><g style="opacity:0.9"><path d="M457.26,254.74l.19-.11.49-.28h0a1.74,1.74,0,0,1,.26-.15h0l.42-.24.85-.48.2-.11a.9.9,0,0,0,.27-.21,1.1,1.1,0,0,0,.21-.33,1.89,1.89,0,0,0,.19-.84V181.14l-2.53,1.46v70.81a2.31,2.31,0,0,1-.17.8,1.22,1.22,0,0,1-.29.42.24.24,0,0,1-.09.08Z" style="fill:#37474f"></path></g><path d="M414.43,164.25a.25.25,0,0,1,.08-.2l1.14-1s0,0,.05,0h0a.17.17,0,0,1,.09.11.29.29,0,0,1,0,.16v.79a1.09,1.09,0,0,1,0,.22.83.83,0,0,1-.08.12l-.61.55.61,1.25c0,.08.06.15.08.22a1.44,1.44,0,0,1,0,.24v.79c0,.06,0,.1,0,.12a.07.07,0,0,1-.09,0l0,0-.05-.07-1.14-2.37a.67.67,0,0,1-.08-.29Z" style="fill:#BA68C8"></path><path d="M418.6,163.15a.3.3,0,0,1,.09-.13s.09,0,.17,0l.42.25a.17.17,0,0,1,.09.11.29.29,0,0,1,0,.16.2.2,0,0,1,0,.07l-2,6.08a.26.26,0,0,1-.08.13s-.09,0-.17,0l-.41-.24a.2.2,0,0,1-.09-.11.32.32,0,0,1,0-.16s0-.05,0-.07Z" style="fill:#BA68C8"></path><path d="M421.63,169a.26.26,0,0,1-.08.21l-1.14,1a.07.07,0,0,1-.06,0h0a.2.2,0,0,1-.09-.11.32.32,0,0,1,0-.16v-.79a1,1,0,0,1,0-.22.35.35,0,0,1,.08-.13l.6-.55-.6-1.24a2.11,2.11,0,0,1-.08-.22,1.44,1.44,0,0,1,0-.24v-.8a.12.12,0,0,1,0-.11s.05,0,.09,0l0,0a.22.22,0,0,1,.06.07l1.14,2.36a.67.67,0,0,1,.08.3Z" style="fill:#BA68C8"></path><path d="M424.8,172.11a.29.29,0,0,1,.11.13.48.48,0,0,1,0,.2v.87a.18.18,0,0,1,0,.14.08.08,0,0,1-.11,0l-.54-.31a.29.29,0,0,1-.11-.13.49.49,0,0,1,0-.2V172a.21.21,0,0,1,0-.15.08.08,0,0,1,.11,0Z" style="fill:#BA68C8"></path><path d="M426.6,173.15a.29.29,0,0,1,.11.13.48.48,0,0,1,0,.2v.87a.18.18,0,0,1,0,.14.09.09,0,0,1-.11,0l-.54-.31a.36.36,0,0,1-.11-.13.53.53,0,0,1-.05-.2V173a.21.21,0,0,1,.05-.15.08.08,0,0,1,.11,0Z" style="fill:#BA68C8"></path><path d="M428.4,174.19a.25.25,0,0,1,.11.13.48.48,0,0,1,0,.2v.87a.2.2,0,0,1,0,.14.09.09,0,0,1-.11,0l-.54-.31a.33.33,0,0,1-.11-.14.45.45,0,0,1-.05-.19V174a.2.2,0,0,1,.05-.14.09.09,0,0,1,.11,0Z" style="fill:#BA68C8"></path><path d="M414.91,171.17l26.36,15.22a1.2,1.2,0,0,1,.57.94c0,.34-.25.46-.57.28l-26.36-15.22a1.21,1.21,0,0,1-.56-.93C414.35,171.12,414.6,171,414.91,171.17Z" style="fill:#BA68C8"></path><path d="M423.37,190.71l26.36,15.22a1.19,1.19,0,0,1,.57.93c0,.34-.25.47-.57.29l-26.36-15.22a1.21,1.21,0,0,1-.56-.94C422.81,190.65,423.06,190.53,423.37,190.71Z" style="fill:#e6e6e6"></path><path d="M423.37,200.47,436,207.76a1.21,1.21,0,0,1,.56.94c0,.34-.25.46-.56.28l-12.62-7.29a1.19,1.19,0,0,1-.56-.93C422.81,200.42,423.06,200.29,423.37,200.47Z" style="fill:#e6e6e6"></path><path d="M443.46,187.65l10.5,6a1.19,1.19,0,0,1,.57.93c0,.34-.26.47-.57.29l-10.5-6a1.19,1.19,0,0,1-.56-.93C442.9,187.6,443.15,187.47,443.46,187.65Z" style="fill:#BA68C8"></path><path d="M414.91,224.89l26.36,15.22a1.19,1.19,0,0,1,.57.93c0,.34-.25.47-.57.29l-26.36-15.22a1.21,1.21,0,0,1-.56-.94C414.35,224.83,414.6,224.71,414.91,224.89Z" style="fill:#BA68C8"></path><path d="M443.46,241.37l10.5,6a1.22,1.22,0,0,1,.57.94c0,.33-.26.46-.57.28l-10.5-6a1.21,1.21,0,0,1-.56-.94C442.9,241.32,443.15,241.19,443.46,241.37Z" style="fill:#BA68C8"></path><path d="M443.46,226.74l10.5,6a1.2,1.2,0,0,1,.57.93c0,.34-.26.47-.57.29l-10.5-6a1.21,1.21,0,0,1-.56-.94C442.9,226.69,443.15,226.56,443.46,226.74Z" style="fill:#BA68C8"></path><path d="M443.46,231.63l10.5,6a1.22,1.22,0,0,1,.57.93c0,.34-.26.47-.57.29l-10.5-6a1.21,1.21,0,0,1-.56-.94C442.9,231.57,443.15,231.45,443.46,231.63Z" style="fill:#BA68C8"></path><path d="M434.5,221.56l5.9,3.41a1.18,1.18,0,0,1,.57.93c0,.34-.25.47-.57.29l-5.9-3.41a1.21,1.21,0,0,1-.56-.94C433.94,221.51,434.19,221.38,434.5,221.56Z" style="fill:#BA68C8"></path><path d="M414.91,176.07l15.38,8.87a1.21,1.21,0,0,1,.56.93c0,.34-.25.47-.56.29l-15.38-8.87a1.21,1.21,0,0,1-.56-.94C414.35,176,414.6,175.89,414.91,176.07Z" style="fill:#BA68C8"></path><path d="M414.91,176.07l15.38,8.87a1.21,1.21,0,0,1,.56.93c0,.34-.25.47-.56.29l-15.38-8.87a1.21,1.21,0,0,1-.56-.94C414.35,176,414.6,175.89,414.91,176.07Z" style="fill:#fff;opacity:0.6000000000000001"></path><path d="M414.91,180.94l5.22,3a1.21,1.21,0,0,1,.56.93c0,.34-.25.47-.56.29l-5.22-3a1.21,1.21,0,0,1-.56-.93C414.35,180.89,414.6,180.76,414.91,180.94Z" style="fill:#BA68C8"></path><path d="M414.91,180.94l5.22,3a1.21,1.21,0,0,1,.56.93c0,.34-.25.47-.56.29l-5.22-3a1.21,1.21,0,0,1-.56-.93C414.35,180.89,414.6,180.76,414.91,180.94Z" style="fill:#fff;opacity:0.6000000000000001"></path><path d="M414.91,185.82l5.22,3a1.21,1.21,0,0,1,.56.94c0,.33-.25.46-.56.28l-5.22-3a1.18,1.18,0,0,1-.56-.93C414.35,185.77,414.6,185.64,414.91,185.82Z" style="fill:#BA68C8"></path><path d="M414.91,185.82l5.22,3a1.21,1.21,0,0,1,.56.94c0,.33-.25.46-.56.28l-5.22-3a1.18,1.18,0,0,1-.56-.93C414.35,185.77,414.6,185.64,414.91,185.82Z" style="fill:#fff;opacity:0.6000000000000001"></path><path d="M414.91,190.71l5.22,3a1.19,1.19,0,0,1,.56.93c0,.34-.25.47-.56.29l-5.22-3a1.21,1.21,0,0,1-.56-.94C414.35,190.65,414.6,190.53,414.91,190.71Z" style="fill:#BA68C8"></path><path d="M414.91,190.71l5.22,3a1.21,1.21,0,0,1,.56.94c0,.34-.25.46-.56.28l-5.22-3a1.21,1.21,0,0,1-.56-.94C414.35,190.65,414.6,190.53,414.91,190.71Z" style="fill:#fff;opacity:0.6000000000000001"></path><path d="M423.37,195.59l15.38,8.87a1.21,1.21,0,0,1,.56.94c0,.33-.25.46-.56.28l-15.38-8.87a1.21,1.21,0,0,1-.56-.94C422.81,195.54,423.06,195.41,423.37,195.59Z" style="fill:#BA68C8;opacity:0.6000000000000001"></path><path d="M440.93,205.72l6.69,3.88a1.18,1.18,0,0,1,.56.93c0,.34-.25.47-.56.29l-6.69-3.88a1.21,1.21,0,0,1-.56-.93C440.37,205.67,440.62,205.54,440.93,205.72Z" style="fill:#BA68C8;opacity:0.6000000000000001"></path><path d="M423.37,195.59l15.38,8.87a1.21,1.21,0,0,1,.56.94c0,.33-.25.46-.56.28l-15.38-8.87a1.21,1.21,0,0,1-.56-.94C422.81,195.54,423.06,195.41,423.37,195.59Z" style="fill:#fff;opacity:0.6000000000000001"></path><path d="M440.93,205.72l6.69,3.88a1.18,1.18,0,0,1,.56.93c0,.34-.25.47-.56.29l-6.69-3.88a1.21,1.21,0,0,1-.56-.93C440.37,205.67,440.62,205.54,440.93,205.72Z" style="fill:#fff;opacity:0.6000000000000001"></path><path d="M414.91,195.59l5.22,3a1.21,1.21,0,0,1,.56.93c0,.34-.25.47-.56.29l-5.22-3a1.21,1.21,0,0,1-.56-.93C414.35,195.54,414.6,195.41,414.91,195.59Z" style="fill:#BA68C8"></path><path d="M414.91,195.59l5.22,3a1.21,1.21,0,0,1,.56.93c0,.34-.25.47-.56.29l-5.22-3a1.21,1.21,0,0,1-.56-.93C414.35,195.54,414.6,195.41,414.91,195.59Z" style="fill:#fff;opacity:0.6000000000000001"></path><path d="M432.47,186.2l6.69,3.87a1.21,1.21,0,0,1,.56.94c0,.33-.25.46-.56.28l-6.69-3.87a1.21,1.21,0,0,1-.56-.94C431.91,186.15,432.16,186,432.47,186.2Z" style="fill:#BA68C8"></path><path d="M432.47,186.2l6.69,3.87a1.21,1.21,0,0,1,.56.94c0,.33-.25.46-.56.28l-6.69-3.87a1.21,1.21,0,0,1-.56-.94C431.91,186.15,432.16,186,432.47,186.2Z" style="fill:#fff;opacity:0.6000000000000001"></path><path d="M429.71,209l15.38,8.87a1.22,1.22,0,0,1,.57.94c0,.34-.26.46-.57.29l-15.38-8.88a1.21,1.21,0,0,1-.56-.93C429.15,209,429.4,208.83,429.71,209Z" style="fill:#fff"></path><path d="M438.59,219,454,227.91a1.22,1.22,0,0,1,.57.94c0,.33-.26.46-.57.28l-15.37-8.87a1.2,1.2,0,0,1-.57-.94C438,219,438.27,218.86,438.59,219Z" style="fill:#fff"></path><path d="M447.28,219.15,454,223a1.22,1.22,0,0,1,.57.93c0,.34-.26.47-.57.29l-6.68-3.87a1.2,1.2,0,0,1-.57-.94C446.71,219.09,447,219,447.28,219.15Z" style="fill:#fff"></path><path d="M447.28,238.49l6.68,3.87a1.22,1.22,0,0,1,.57.94c0,.33-.26.46-.57.28l-6.68-3.87a1.2,1.2,0,0,1-.57-.94C446.71,238.44,447,238.31,447.28,238.49Z" style="fill:#e6e6e6"></path><path d="M423.37,185.82l15.38,8.88a1.19,1.19,0,0,1,.56.93c0,.34-.25.47-.56.29L423.37,187a1.18,1.18,0,0,1-.56-.93C422.81,185.77,423.06,185.64,423.37,185.82Z" style="fill:#BA68C8"></path><path d="M423.37,185.82l15.38,8.88a1.19,1.19,0,0,1,.56.93c0,.34-.25.47-.56.29L423.37,187a1.18,1.18,0,0,1-.56-.93C422.81,185.77,423.06,185.64,423.37,185.82Z" style="fill:#fff;opacity:0.6000000000000001"></path><path d="M440.93,196l6.69,3.87a1.21,1.21,0,0,1,.56.94c0,.33-.25.46-.56.28l-6.69-3.87a1.21,1.21,0,0,1-.56-.94C440.37,195.9,440.62,195.78,440.93,196Z" style="fill:#BA68C8"></path><path d="M440.93,196l6.69,3.87a1.21,1.21,0,0,1,.56.94c0,.33-.25.46-.56.28l-6.69-3.87a1.21,1.21,0,0,1-.56-.94C440.37,195.9,440.62,195.78,440.93,196Z" style="fill:#fff;opacity:0.6000000000000001"></path></g><g id="freepik--Mouse--inject-5"><path d="M336.12,251.91l9.42,5.44a10.38,10.38,0,0,0,10.4-.55l15.55-11.35c2.77-2,2.61-5-.36-6.77l-4.72-2.74a12.83,12.83,0,0,0-10.93-.33L336.29,246C333.22,247.55,333.14,250.19,336.12,251.91Z" style="opacity:0.15"></path><path d="M371.74,240.51,361,248.92l-7.94,6.21a7,7,0,0,1-2.53.61,6.88,6.88,0,0,1-3.77-.79l-8.43-4.87a0,0,0,0,1,0,0l-.05,0a6,6,0,0,1-1.71-8.53l.25-.35a11.24,11.24,0,0,1,6.79-4.3l4.27-.85c6.92-1.41,12.59-2.09,13.25-1.64l10.57,6.12Z" style="fill:#37474f"></path><path d="M365.73,245.22l.61-.48-9.49-5.47,8.3-2.57-.84-.49-8.3,2.57-5.66-3.26-1.07.2Z" style="fill:#BA68C8"></path><path d="M354,254.62l0,0h0l7.56-5.46,10.19-7.36V240.6a.1.1,0,0,0-.05-.09l-.06,0c-.76-.26-5.18,1.07-10.52,3.19l-3.54,1.41a11.21,11.21,0,0,0-7.1,10.47v.18a7,7,0,0,0,2.53-.61Z" style="fill:#263238"></path></g></g></g></svg>